<svg fill="none" xmlns="http://www.w3.org/2000/svg" viewBox="0 0 174 262"><path d="M87.001 255.468l-4.809-7.875c-2.229-3.648-54.743-89.717-70.046-121.962-4.084-8.607-8.459-24.603-8.459-34.7 0-48.426 36.595-86.36 83.314-86.36 46.718 0 83.313 37.934 83.313 86.36 0 10.098-4.373 26.094-8.456 34.7-15.304 32.245-67.817 118.314-70.047 121.962L87 255.468z" fill="#62BB46"/><path d="M87 262l-5.022-8.223c-2.326-3.811-57.165-93.688-73.145-127.359C4.566 117.431 0 100.727 0 90.184 0 39.614 38.215 0 87 0s87 39.614 87 90.184c0 10.543-4.566 27.248-8.831 36.234-15.98 33.671-70.817 123.548-73.146 127.359L87.001 262zm0-250.113c-42.17 0-75.206 34.391-75.206 78.296 0 8.544 4.054 23.468 7.68 31.105C32.4 148.524 72.77 215.761 87 239.272c14.231-23.512 54.604-90.751 67.529-117.984 3.623-7.636 7.677-22.561 7.677-31.105 0-43.904-33.035-78.296-75.205-78.296z" fill="#58595B"/><path d="M87 151.054c-23.36 0-44.456-13.308-54.836-33.862-2.057-4.067-.118-9.026 4.165-10.515 3.484-1.21 7.346.323 9.01 3.637 7.86 15.647 23.898 25.785 41.662 25.785 17.767 0 33.803-10.138 41.662-25.785 1.665-3.314 5.528-4.847 9.011-3.637 4.283 1.489 6.221 6.448 4.165 10.515-10.381 20.554-31.475 33.862-54.838 33.862z" fill="#fff"/><path d="M115.146 89.258c0 14.909-12.272 25.288-27.72 25.288-10.41 0-18.955-4.639-24.215-11.816-.768-1.105-1.316-2.65-1.316-4.086 0-3.753 3.069-6.845 6.905-6.845 1.97 0 3.833.883 4.93 2.208 3.507 4.197 7.56 6.735 13.257 6.735 7.561 0 12.929-4.416 12.929-11.263 0-6.847-5.04-10.49-14.792-10.49h-9.422c-4.273 0-7.449-3.203-7.449-7.509V47.85c0-4.306 3.176-7.51 7.449-7.51h28.927c3.943 0 6.792 2.871 6.792 6.736 0 3.754-2.849 6.736-6.792 6.736H82.496v12.367h7.559c13.698.001 25.091 8.836 25.091 23.08z" fill="#fff"/></svg>