<svg fill="none" xmlns="http://www.w3.org/2000/svg" viewBox="0 0 174 262"><path d="M87 0C38.216 0 0 39.614 0 90.183c0 10.543 4.566 27.248 8.833 36.235 15.98 33.671 70.818 123.549 73.145 127.359L87 262l5.022-8.223c2.326-3.81 57.165-93.688 73.146-127.359 4.265-8.986 8.831-25.691 8.831-36.235C174 39.613 135.785 0 87 0z" fill="#58595B"/><path d="M87 151.054c-23.36 0-44.456-13.308-54.836-33.861-2.057-4.067-.118-9.027 4.165-10.515 3.482-1.211 7.346.322 9.01 3.636C53.198 125.962 69.236 136.1 87 136.1c17.767 0 33.803-10.138 41.662-25.786 1.665-3.314 5.53-4.848 9.011-3.636 4.283 1.488 6.221 6.448 4.165 10.515-10.381 20.553-31.475 33.861-54.838 33.861z" fill="#62BB46"/><path d="M115.146 89.262c0 14.908-12.272 25.287-27.72 25.287-10.41 0-18.955-4.638-24.215-11.816-.768-1.104-1.316-2.65-1.316-4.087 0-3.753 3.069-6.845 6.904-6.845 1.973 0 3.834.883 4.93 2.209 3.508 4.196 7.56 6.734 13.258 6.734 7.561 0 12.929-4.416 12.929-11.262 0-6.847-5.04-10.491-14.792-10.491h-9.422c-4.273 0-7.45-3.203-7.45-7.509V47.85c0-4.306 3.177-7.508 7.45-7.508h28.927c3.943 0 6.792 2.87 6.792 6.736 0 3.753-2.849 6.735-6.792 6.735H82.493V66.18h7.562c13.698.002 25.091 8.837 25.091 23.082z" fill="#fff"/></svg>