<svg fill="none" xmlns="http://www.w3.org/2000/svg" viewBox="0 0 174 262"><path d="M84.405 252.56c-2.323-3.801-57.061-93.505-73.002-127.092-4.13-8.702-8.554-24.841-8.554-34.996 0-48.96 36.964-87.312 84.152-87.312 47.186 0 84.149 38.353 84.149 87.312 0 10.154-4.421 26.293-8.551 34.996-16.023 33.757-70.683 123.296-73.002 127.092l-2.596 4.25-2.596-4.25z" fill="#fff"/><path d="M87 262l-5.022-8.223c-2.326-3.81-57.165-93.688-73.145-127.359C4.566 117.431 0 100.726 0 90.183 0 39.613 38.215 0 87 0c48.784 0 87 39.614 87 90.183 0 10.544-4.566 27.249-8.831 36.235-15.98 33.671-70.818 123.549-73.146 127.359L87.001 262zm0-250.114c-42.17 0-75.207 34.392-75.207 78.296 0 8.544 4.054 23.47 7.68 31.105 12.925 27.238 53.297 94.474 67.528 117.985 14.229-23.512 54.602-90.751 67.528-117.985 3.623-7.635 7.677-22.56 7.677-31.104 0-43.905-33.036-78.297-75.205-78.297z" fill="#58595B"/><path d="M87 151.054c-23.36 0-44.456-13.308-54.836-33.861-2.057-4.067-.118-9.027 4.165-10.515 3.483-1.211 7.346.322 9.01 3.636 7.86 15.648 23.898 25.787 41.662 25.787 17.767 0 33.803-10.139 41.661-25.787 1.665-3.314 5.528-4.848 9.012-3.636 4.283 1.488 6.221 6.448 4.165 10.515-10.381 20.553-31.476 33.861-54.838 33.861z" fill="#62BB46"/><path d="M115.146 89.262c0 14.908-12.272 25.287-27.72 25.287-10.41 0-18.955-4.638-24.215-11.816-.768-1.104-1.316-2.65-1.316-4.087 0-3.753 3.069-6.845 6.903-6.845 1.971 0 3.834.883 4.93 2.209 3.508 4.196 7.56 6.734 13.258 6.734 7.561 0 12.929-4.416 12.929-11.262 0-6.847-5.04-10.491-14.793-10.491h-9.421c-4.273 0-7.45-3.203-7.45-7.509V47.85c0-4.306 3.177-7.508 7.45-7.508h28.927c3.943 0 6.792 2.87 6.792 6.736 0 3.753-2.849 6.735-6.792 6.735H82.495V66.18h7.56c13.698.001 25.091 8.836 25.091 23.082z" fill="#58595B"/></svg>